<?xml version="1.0" encoding="utf-8"?>
<svg width="115" height="34" viewBox="0 0 115 34" fill="none" xmlns="http://www.w3.org/2000/svg" xmlns:bx="https://boxy-svg.com">
  <path fill-rule="evenodd" clip-rule="evenodd" d="M17 34C26.3888 34 34 26.3888 34 17C34 7.61116 26.3888 0 17 0C7.61114 0 0 7.61116 0 17C0 26.3888 7.61114 34 17 34ZM22.3034 7.91931C22.5616 7.00234 21.6717 6.46011 20.859 7.0391L9.51415 15.1211C8.63278 15.749 8.77142 17 9.7224 17H12.7098V16.9768H18.5321L13.788 18.6508L11.6966 26.0807C11.4385 26.9977 12.3282 27.5399 13.141 26.9609L24.4859 18.8789C25.3672 18.251 25.2285 17 24.2776 17H19.7473L22.3034 7.91931Z" fill="#0260FF"/>
  <path d="M 65.358 27.612 L 65.358 16.353 L 66.795 16.353 L 66.795 27.612 L 65.358 27.612 Z M 66.413 27.612 L 66.413 25.691 L 70.527 25.691 L 70.527 27.612 L 66.413 27.612 Z M 66.413 22.791 L 66.413 20.934 L 70.156 20.934 L 70.156 22.791 L 66.413 22.791 Z M 66.413 18.275 L 66.413 16.353 L 70.473 16.353 L 70.473 18.275 L 66.413 18.275 Z M 73.662 27.773 C 73.189 27.773 72.767 27.597 72.395 27.244 C 72.02 26.892 71.725 26.412 71.506 25.803 C 71.294 25.194 71.19 24.51 71.19 23.752 C 71.19 22.984 71.294 22.295 71.506 21.686 C 71.725 21.078 72.018 20.597 72.384 20.245 C 72.756 19.892 73.183 19.717 73.662 19.717 C 74.028 19.717 74.357 19.828 74.647 20.053 C 74.941 20.277 75.178 20.592 75.354 20.998 C 75.537 21.393 75.635 21.841 75.649 22.343 L 75.649 25.098 C 75.635 25.6 75.539 26.054 75.363 26.459 C 75.189 26.865 74.952 27.185 74.656 27.42 C 74.361 27.656 74.028 27.773 73.662 27.773 Z M 73.895 25.834 C 74.156 25.834 74.381 25.75 74.571 25.578 C 74.769 25.397 74.921 25.151 75.026 24.842 C 75.14 24.521 75.196 24.153 75.196 23.737 C 75.196 23.331 75.14 22.973 75.026 22.663 C 74.921 22.343 74.769 22.098 74.571 21.927 C 74.381 21.745 74.16 21.654 73.906 21.654 C 73.645 21.654 73.417 21.745 73.218 21.927 C 73.029 22.108 72.877 22.354 72.763 22.663 C 72.658 22.973 72.605 23.331 72.605 23.737 C 72.605 24.153 72.658 24.521 72.763 24.842 C 72.877 25.151 73.033 25.397 73.229 25.578 C 73.426 25.75 73.649 25.834 73.895 25.834 Z M 76.495 27.612 L 75.122 27.612 L 75.122 25.53 L 75.343 23.64 L 75.111 21.782 L 75.111 16.033 L 76.495 16.033 L 76.495 27.612 Z M 80.161 27.773 C 79.626 27.773 79.15 27.602 78.735 27.26 C 78.318 26.908 77.988 26.427 77.742 25.819 C 77.501 25.21 77.383 24.516 77.383 23.737 C 77.383 22.968 77.497 22.285 77.731 21.686 C 77.97 21.078 78.293 20.597 78.704 20.245 C 79.113 19.882 79.566 19.7 80.065 19.7 C 80.559 19.7 80.994 19.871 81.367 20.213 C 81.746 20.544 82.043 21.003 82.255 21.59 C 82.474 22.167 82.583 22.823 82.583 23.56 C 82.583 23.699 82.576 23.843 82.561 23.993 C 82.554 24.132 82.536 24.292 82.507 24.473 L 78.218 24.489 L 78.218 22.92 L 81.864 22.904 L 81.304 23.56 C 81.291 23.101 81.233 22.717 81.135 22.407 C 81.043 22.098 80.905 21.862 80.722 21.703 C 80.545 21.532 80.327 21.446 80.065 21.446 C 79.791 21.446 79.552 21.542 79.349 21.734 C 79.144 21.916 78.985 22.178 78.871 22.519 C 78.767 22.85 78.713 23.245 78.713 23.705 C 78.713 24.174 78.769 24.586 78.883 24.938 C 79.003 25.279 79.173 25.546 79.389 25.739 C 79.608 25.92 79.862 26.011 80.15 26.011 C 80.411 26.011 80.648 25.947 80.86 25.819 C 81.072 25.68 81.253 25.477 81.409 25.21 L 82.221 26.443 C 81.976 26.881 81.672 27.212 81.313 27.436 C 80.96 27.66 80.577 27.773 80.161 27.773 Z M 83.438 27.612 L 83.438 19.876 L 84.824 19.876 L 84.824 27.612 L 83.438 27.612 Z M 86.768 27.612 L 86.768 23.048 C 86.768 22.6 86.674 22.252 86.482 22.007 C 86.299 21.751 86.071 21.623 85.797 21.623 C 85.612 21.623 85.446 21.681 85.299 21.799 C 85.15 21.905 85.034 22.066 84.951 22.279 C 84.866 22.493 84.824 22.749 84.824 23.048 L 84.284 22.647 C 84.284 22.049 84.368 21.532 84.538 21.094 C 84.714 20.656 84.951 20.32 85.246 20.085 C 85.542 19.839 85.877 19.717 86.25 19.717 C 86.602 19.717 86.922 19.839 87.212 20.085 C 87.5 20.32 87.73 20.656 87.899 21.094 C 88.069 21.521 88.154 22.039 88.154 22.647 L 88.154 27.612 L 86.768 27.612 Z M 90.098 27.612 L 90.098 23.048 C 90.098 22.6 90.002 22.252 89.812 22.007 C 89.629 21.751 89.399 21.623 89.124 21.623 C 88.948 21.623 88.783 21.681 88.627 21.799 C 88.479 21.905 88.363 22.066 88.279 22.279 C 88.194 22.493 88.154 22.749 88.154 23.048 L 87.359 22.76 C 87.388 22.14 87.497 21.606 87.687 21.158 C 87.879 20.698 88.127 20.346 88.437 20.101 C 88.75 19.845 89.093 19.717 89.475 19.717 C 89.854 19.717 90.196 19.839 90.499 20.085 C 90.803 20.32 91.042 20.661 91.218 21.11 C 91.394 21.558 91.483 22.092 91.483 22.711 L 91.483 27.612 L 90.098 27.612 Z M 94.211 27.677 L 92.075 19.876 L 93.577 19.876 L 94.992 25.834 L 94.485 25.834 L 95.954 19.876 L 97.467 19.876 L 95.195 27.677 L 94.211 27.677 Z M 92.796 30.848 L 94.349 25.867 L 95.195 27.677 L 94.264 30.848 L 92.796 30.848 Z" style="fill: rgb(255, 255, 255);"/>
  <text style="fill: rgb(2, 2, 2); font-family: &quot;Be Vietnam Pro&quot;; font-size: 17.0211px; font-weight: 700; line-height: 28.0119px; white-space: pre;" transform="matrix(0.97854, 0, 0, 1.028135, 3.752983, -1.708628)" x="28.643" y="24.218"> SkillEdge</text>
  <defs>
    <style bx:fonts="Be Vietnam Pro">@import url(https://fonts.googleapis.com/css2?family=Be+Vietnam+Pro%3Aital%2Cwght%400%2C100%3B0%2C200%3B0%2C300%3B0%2C400%3B0%2C500%3B0%2C600%3B0%2C700%3B0%2C800%3B0%2C900%3B1%2C100%3B1%2C200%3B1%2C300%3B1%2C400%3B1%2C500%3B1%2C600%3B1%2C700%3B1%2C800%3B1%2C900&amp;display=swap);</style>
  </defs>
</svg>